<?xml version="1.0" standalone="no"?><!DOCTYPE svg PUBLIC "-//W3C//DTD SVG 1.1//EN" "http://www.w3.org/Graphics/SVG/1.1/DTD/svg11.dtd"><svg t="1691823831325" class="icon" viewBox="0 0 1024 1024" version="1.1" xmlns="http://www.w3.org/2000/svg" p-id="38982" xmlns:xlink="http://www.w3.org/1999/xlink" width="200" height="200"><path d="M1001.101102 322.519685C911.11811 380.492598 824.763465 441.932598 733.732283 498.937953 820.006299 559.087874 911.11811 614.80315 998.843465 673.098583 903.780787 776.062992 800.897008 889.025512 698.900157 996.263307 692.046614 1003.43937 680.194016 1017.468976 679.548976 1017.549606 672.372913 1018.355906 640.846614 982.314331 635.04126 977.234646 590.614173 935.790866 550.057323 893.298898 505.388346 855.322205 505.269354 873.416648 506.130668 891.504253 507.968504 909.505512 396.215433 940.306142 282.204724 969.010394 167.387717 996.585827 117.880945 713.574803 64.020157 435.401575 16.125984 150.939213 177.950236 103.125669 339.613228 55.150866 499.905512 5.805354 504.420787 54.183307 500.550551 110.624252 501.84063 162.549921 531.512441 142.311811 559.007244 112.80126 588.920945 85.145197 618.834646 57.489134 651.812283 29.429921 679.871496 0 787.673701 106.673386 896.443465 212.621102 1001.101102 322.519685L1001.101102 322.519685ZM677.936378 84.822677C656.650079 105.141417 634.63811 126.669606 612.142362 146.746457 548.283465 203.187402 483.779528 261.644094 422.500787 313.166614 422.500787 237.455118 422.500787 161.904882 420.565669 88.692913 315.961785 118.257218 212.110446 148.574069 109.011654 179.643465 147.875276 403.149606 191.818583 621.898583 230.924094 845.324094 241.433108 843.420253 251.783212 840.724907 261.885984 837.261102 251.323465 763.323465 231.972283 687.853858 225.11874 616.657638 247.937008 688.660157 275.431811 756.066772 298.653228 827.585512 342.677165 820.006299 380.895748 806.621732 424.435906 798.55874L424.435906 618.673386C509.097323 695.271811 590.775433 774.853543 676.00126 850.887559 740.505197 781.062047 809.766299 716.31622 871.448189 643.829921 787.512441 592.629921 702.125354 535.866457 619.882835 485.150236 607.868976 477.732283 594.08126 471.28189 585.050709 459.993701 682.290394 400.488819 775.014803 336.468661 871.448189 276.15748 810.169449 209.637795 743.165984 147.955906 677.936378 84.822677L677.936378 84.822677ZM672.131024 342.193386C652.134803 361.625197 627.058898 382.508346 602.466772 402.182047 577.874646 421.855748 551.266772 441.368189 526.997165 460.235591 549.654173 484.424567 577.955276 501.92126 604.40189 522.15937 630.848504 542.39748 655.924409 564.409449 683.741732 582.148031 662.777953 577.390866 645.36189 563.52252 625.688189 553.12126 568.360315 522.72378 507.323465 492.729449 449.592441 462.170709 464.589606 446.044724 487.004724 441.287559 506.033386 431.208819 558.604094 403.149606 616.818898 371.865197 672.131024 342.193386L672.131024 342.193386Z" fill="#000000" p-id="38983"></path></svg>